<svg xmlns="http://www.w3.org/2000/svg" version="1.1" xlink="http://www.w3.org/1999/xlink" xmlns:svgjs="http://svgjs.com/svgjs" width="100%" height="100%" viewBox="8.680000305175781 -68.66000366210938 347.19000244140625 69.5300064086914"><g fill="#ffffff"><path d="M58.8 -66.83C58.14 -66.2 57.81 -65.39 57.81 -64.4L57.81 -37.32L15.45 -37.32L15.45 -64.4C15.45 -65.39 15.13 -66.2 14.5 -66.83C13.86 -67.47 13.05 -67.79 12.06 -67.79C11.14 -67.79 10.34 -67.47 9.68 -66.83C9.01 -66.2 8.68 -65.39 8.68 -64.4L8.68 -3.39C8.68 -2.46 9.01 -1.66 9.68 -1C10.34 -0.33 11.14 0 12.06 0C13.05 0 13.86 -0.33 14.5 -1C15.13 -1.66 15.45 -2.46 15.45 -3.39L15.45 -31.25L57.81 -31.25L57.81 -3.39C57.81 -2.46 58.14 -1.66 58.8 -1C59.47 -0.33 60.27 0 61.19 0C62.18 0 62.99 -0.33 63.62 -1C64.26 -1.66 64.58 -2.46 64.58 -3.39L64.58 -64.4C64.58 -65.39 64.26 -66.2 63.62 -66.83C62.99 -67.47 62.18 -67.79 61.19 -67.79C60.27 -67.79 59.47 -67.47 58.8 -66.83Z M131.02 -64.14C125.73 -67.15 119.81 -68.66 113.27 -68.66C106.67 -68.66 100.74 -67.15 95.48 -64.14C90.21 -61.13 86.09 -57 83.11 -51.73C80.13 -46.47 78.64 -40.53 78.64 -33.94C78.64 -27.34 80.13 -21.4 83.11 -16.1C86.09 -10.81 90.21 -6.65 95.48 -3.65C100.74 -0.64 106.67 0.87 113.27 0.87C119.81 0.87 125.73 -0.64 131.02 -3.65C136.31 -6.65 140.45 -10.81 143.43 -16.1C146.41 -21.4 147.9 -27.34 147.9 -33.94C147.9 -40.53 146.41 -46.47 143.43 -51.73C140.45 -57 136.31 -61.13 131.02 -64.14ZM98.91 -58.5C103.16 -60.99 107.95 -62.23 113.27 -62.23C118.54 -62.23 123.3 -60.99 127.55 -58.5C131.8 -56.01 135.14 -52.61 137.57 -48.3C140 -43.99 141.22 -39.2 141.22 -33.94C141.22 -28.61 140 -23.8 137.57 -19.49C135.14 -15.18 131.8 -11.78 127.55 -9.29C123.3 -6.8 118.54 -5.56 113.27 -5.56C107.95 -5.56 103.16 -6.8 98.91 -9.29C94.65 -11.78 91.31 -15.18 88.88 -19.49C86.45 -23.8 85.23 -28.61 85.23 -33.94C85.23 -39.2 86.45 -43.99 88.88 -48.3C91.31 -52.61 94.65 -56.01 98.91 -58.5Z M201.98 -66.83C198.56 -68.05 194.77 -68.66 190.61 -68.66C184.41 -68.66 178.74 -67.09 173.59 -63.97C168.44 -60.84 164.36 -56.62 161.36 -51.3C158.35 -45.97 156.84 -40.19 156.84 -33.94C156.84 -27.63 158.36 -21.81 161.4 -16.49C164.44 -11.17 168.53 -6.94 173.68 -3.82C178.83 -0.69 184.47 0.87 190.61 0.87C199.34 0.87 206.43 -1.62 211.87 -6.6C212.51 -7.29 212.83 -8.1 212.83 -9.03C212.83 -10.01 212.51 -10.81 211.87 -11.41C211.23 -12.02 210.48 -12.33 209.61 -12.33C208.98 -12.33 208.34 -12.09 207.71 -11.63C202.61 -7.58 196.91 -5.56 190.61 -5.56C185.69 -5.56 181.15 -6.83 176.98 -9.37C172.81 -11.92 169.51 -15.36 167.08 -19.7C164.65 -24.04 163.44 -28.79 163.44 -33.94C163.44 -38.97 164.67 -43.66 167.13 -48C169.59 -52.34 172.9 -55.8 177.07 -58.37C181.23 -60.95 185.75 -62.23 190.61 -62.23C194.14 -62.23 197.23 -61.77 199.89 -60.84C202.56 -59.92 205.01 -58.44 207.27 -56.42C207.85 -55.9 208.57 -55.64 209.44 -55.64C209.9 -55.64 210.34 -55.75 210.74 -55.98C211.15 -56.22 211.41 -56.53 211.52 -56.94C211.93 -57.11 212.25 -57.39 212.48 -57.76C212.71 -58.14 212.83 -58.56 212.83 -59.02C212.83 -59.89 212.51 -60.56 211.87 -61.02C208.69 -63.68 205.39 -65.62 201.98 -66.83Z M278.27 -3.39C278.27 -3.91 278.16 -4.37 277.92 -4.77L252.32 -65.44C251.74 -67.01 250.67 -67.79 249.11 -67.79C247.54 -67.79 246.45 -67.01 245.81 -65.44L220.29 -4.86C220.12 -4.46 220.03 -3.96 220.03 -3.39C220.03 -2.46 220.33 -1.66 220.94 -1C221.55 -0.33 222.34 0 223.33 0C224.95 0 225.99 -0.69 226.45 -2.08L232.27 -16.14L265.86 -16.14L271.67 -2.08C272.31 -0.69 273.38 0 274.89 0C275.81 0 276.61 -0.33 277.27 -1C277.94 -1.66 278.27 -2.46 278.27 -3.39ZM263.52 -21.96L234.7 -21.96L249.11 -56.77Z M354.91 -66.83C354.28 -67.47 353.5 -67.79 352.57 -67.79C351.24 -67.79 350.23 -67.21 349.53 -66.05L322.28 -10.85L294.5 -66.05C293.81 -67.21 292.8 -67.79 291.46 -67.79C290.54 -67.79 289.74 -67.47 289.08 -66.83C288.41 -66.2 288.08 -65.39 288.08 -64.4L288.08 -3.39C288.08 -2.46 288.41 -1.66 289.08 -1C289.74 -0.33 290.54 0 291.46 0C292.45 0 293.26 -0.33 293.89 -1C294.53 -1.66 294.85 -2.46 294.85 -3.39L294.85 -51.73L318.89 -3.65C319.53 -2.26 320.57 -1.56 322.02 -1.56C323.29 -1.56 324.27 -2.11 324.97 -3.21L349.1 -52.51L349.1 -3.39C349.1 -2.46 349.43 -1.66 350.1 -1C350.76 -0.33 351.59 0 352.57 0C353.5 0 354.28 -0.33 354.91 -1C355.55 -1.66 355.87 -2.46 355.87 -3.39L355.87 -64.4C355.87 -65.39 355.55 -66.2 354.91 -66.83Z"></path></g></svg>